<?xml version="1.0" encoding="UTF-8" standalone="no"?>
<svg width="26px" height="24px" viewBox="0 0 26 24" version="1.1" xmlns="http://www.w3.org/2000/svg" xmlns:xlink="http://www.w3.org/1999/xlink" xmlns:sketch="http://www.bohemiancoding.com/sketch/ns">
    <!-- Generator: Sketch 3.4.1 (15681) - http://www.bohemiancoding.com/sketch -->
    <title>Sound</title>
    <desc>Created with Sketch.</desc>
    <defs>
        <path id="path-1" d="M0,0.240369231 L17.9343692,0.240369231 L17.9343692,16.8923077 L0,16.8923077"></path>
    </defs>
    <g id="Page-1" stroke="none" stroke-width="1" fill="none" fill-rule="evenodd" sketch:type="MSPage">
        <g id="Video-player" sketch:type="MSArtboardGroup" transform="translate(-184.000000, -427.000000)">
            <g id="Player" sketch:type="MSLayerGroup" transform="translate(130.000000, 147.500000)">
                <g id="bar" transform="translate(0.000000, 121.000000)">
                    <g id="controls">
                        <g id="Sound" transform="translate(58.000000, 160.000000)">
                            <path d="M8.50051385,0.240452308 L0.174821538,8.56614462 L8.50051385,16.8923908 L8.50051385,0.240452308 Z" id="Fill-1" fill="#FEFEFE" sketch:type="MSShapeGroup"></path>
                            <path d="M0,12.0987692 L7.06458462,12.0987692 L7.06458462,5.03390769 L0,5.03390769 L0,12.0987692 Z" id="Fill-2" fill="#FEFEFE" sketch:type="MSShapeGroup"></path>
                            <g id="Group-8">
                                <g id="Group-5">
                                    <mask id="mask-2" sketch:name="Clip 4" fill="white">
                                        <use xlink:href="#path-1"></use>
                                    </mask>
                                    <g id="Clip-4"></g>
                                    <path d="M9.60837231,0.240396923 L9.60837231,3.50836615 C12.4019723,3.50836615 14.6663723,5.77276615 14.6663723,8.56636615 C14.6663723,11.3596892 12.4019723,13.6243662 9.60837231,13.6243662 L9.60837231,16.8923354 C14.20668,16.8923354 17.9343415,13.1646738 17.9343415,8.56636615 C17.9343415,3.96805846 14.20668,0.240396923 9.60837231,0.240396923" id="Fill-3" fill="#FEFEFE" sketch:type="MSShapeGroup" mask="url(#mask-2)"></path>
                                </g>
                                <path d="M9.60837231,4.74136615 L9.60837231,12.3913662 C11.7207415,12.3913662 13.4332338,10.6788738 13.4332338,8.56622769 C13.4332338,6.45385846 11.7207415,4.74136615 9.60837231,4.74136615" id="Fill-6" fill="#FEFEFE" sketch:type="MSShapeGroup"></path>
                            </g>
                        </g>
                    </g>
                </g>
            </g>
        </g>
    </g>
</svg>