<?xml version="1.0" encoding="UTF-8" standalone="no"?>
<svg width="26px" height="23px" viewBox="0 0 26 23" version="1.1" xmlns="http://www.w3.org/2000/svg" xmlns:xlink="http://www.w3.org/1999/xlink" xmlns:sketch="http://www.bohemiancoding.com/sketch/ns">
    <!-- Generator: Sketch 3.4.1 (15681) - http://www.bohemiancoding.com/sketch -->
    <title>fullscreen</title>
    <desc>Created with Sketch.</desc>
    <defs>
        <filter x="-50%" y="-50%" width="200%" height="200%" filterUnits="objectBoundingBox" id="filter-1">
            <feOffset dx="0" dy="2" in="SourceAlpha" result="shadowOffsetOuter1"></feOffset>
            <feGaussianBlur stdDeviation="2" in="shadowOffsetOuter1" result="shadowBlurOuter1"></feGaussianBlur>
            <feColorMatrix values="0 0 0 0 0   0 0 0 0 0   0 0 0 0 0  0 0 0 0.35 0" in="shadowBlurOuter1" type="matrix" result="shadowMatrixOuter1"></feColorMatrix>
            <feMerge>
                <feMergeNode in="shadowMatrixOuter1"></feMergeNode>
                <feMergeNode in="SourceGraphic"></feMergeNode>
            </feMerge>
        </filter>
    </defs>
    <g id="Page-1" stroke="none" stroke-width="1" fill="none" fill-rule="evenodd" sketch:type="MSPage">
        <g id="Video-player" sketch:type="MSArtboardGroup" transform="translate(-626.000000, -427.000000)" filter="url(#filter-1)" fill="#FEFEFE" opacity="0.898204291">
            <g id="Player" sketch:type="MSLayerGroup" transform="translate(130.000000, 147.500000)">
                <g id="bar" transform="translate(0.000000, 121.000000)" sketch:type="MSShapeGroup">
                    <g id="controls">
                        <path d="M500,161 L518,161 L518,175 L500,175 L500,161 Z M503,164 L515,164 L515,172 L503,172 L503,164 Z M506,161 L512,161 L512,164 L506,164 L506,161 Z M506,172 L512,172 L512,175 L506,175 L506,172 Z M500,166 L503,166 L503,170 L500,170 L500,166 Z M515,166 L518,166 L518,170 L515,170 L515,166 Z" id="fullscreen"></path>
                    </g>
                </g>
            </g>
        </g>
    </g>
</svg>